<?xml version="1.0" standalone="no"?>
<!DOCTYPE svg PUBLIC "-//W3C//DTD SVG 20010904//EN"
 "http://www.w3.org/TR/2001/REC-SVG-20010904/DTD/svg10.dtd">
<svg version="1.0" xmlns="http://www.w3.org/2000/svg"
 width="400.000000pt" height="400.000000pt" viewBox="0 0 400.000000 400.000000"
 preserveAspectRatio="xMidYMid meet">

<g transform="translate(0.000000,400.000000) scale(0.100000,-0.100000)"
fill="#000000" stroke="none">
<path d="M1490 3923 c0 -74 -19 -171 -41 -217 -12 -23 -71 -90 -134 -151 -122
-118 -154 -169 -177 -278 -28 -131 66 -295 184 -322 l26 -7 0 80 c-1 115 14
140 139 235 161 122 226 231 226 377 0 96 -28 172 -90 240 -38 42 -106 90
-128 90 -3 0 -5 -21 -5 -47z"/>
<path d="M2135 3903 c-16 -170 -46 -236 -154 -332 -107 -94 -127 -118 -163
-191 -26 -50 -34 -80 -36 -136 -5 -83 6 -122 50 -188 28 -43 114 -106 144
-106 7 0 13 32 16 88 5 112 18 133 130 218 113 86 162 140 201 222 29 61 32
75 31 162 0 105 -18 159 -74 231 -28 34 -113 99 -131 99 -4 0 -10 -30 -14 -67z"/>
<path d="M3662 3655 c-426 -208 -746 -437 -1082 -774 l-185 -186 148 -3 148
-3 137 125 c318 290 587 473 969 658 134 65 187 95 195 113 17 38 2 90 -38
124 -57 51 -90 45 -292 -54z"/>
<path d="M0 2531 c0 -27 5 -95 11 -152 69 -686 484 -1281 1104 -1585 893 -439
1969 -150 2524 675 201 299 311 627 337 1004 l7 107 -1992 0 -1991 0 0 -49z"/>
<path d="M0 195 l0 -165 1990 0 1990 0 0 165 0 165 -1990 0 -1990 0 0 -165z"/>
</g>
</svg>
